<svg id="Layer_1" data-name="Layer 1" xmlns="http://www.w3.org/2000/svg" viewBox="0 0 1440.5 690"><defs><style>.cls-1,.cls-3,.cls-4{stroke:#000;stroke-miterlimit:10;}.cls-2,.cls-4{fill:#fff;}.cls-3{fill:none;}</style></defs><g id="Layer_3" data-name="Layer 3"><path class="cls-1" d="M446.52,320.44a69.74,69.74,0,0,1,31-18.94V255.72s-19-8.22-17-13.22l-28,13s-27-12-12-23c0,0-16,15,3,23l1,18s-13,1-12,7c0,0,11-4,12,0a19.44,19.44,0,0,1,0,8.16s-10-1.16-11,6.84c0,0,9.83-5,10.41,0s1,15.88,1,15.88v2.3s-12.87-.15-14.35,3.63a2.07,2.07,0,0,0-.09,1.19c1,5-.05-.83-.05-.83s12.94-4.17,14.49-.67-3.44,39.5-3.44,39.5l8-6,2-38s10.34,3.45,15,7.94a11.94,11.94,0,0,1,1,1.06"/><polygon class="cls-2" points="433.01 298.16 433.99 259.71 434.79 258.92 456.45 249.07 469 257.52 469 298.19 453.47 305.95 433.01 298.16"/><path d="M456.4,249.64l12.1,8.15v40.09l-15.05,7.53-19.93-7.59,1-37.89.59-.59,21.32-9.7m.1-1.14-22,10-1,1-1,39,21,8,16-8V257.26l-13-8.76Z"/><path class="cls-3" d="M482.5,248.92C474,250,467,243,463,236c-7,0-13,7-20.57,8.22"/><path class="cls-3" d="M482.5,252.5v46h0"/><path class="cls-3" d="M451,321.85s19.5-15.35,26.5-15.35"/><path class="cls-3" d="M421.5,359.5l12-8s0-3,3-34c0,0,8,4,10,6"/><path class="cls-3" d="M432.5,250.36l14-7.34Z"/><path class="cls-3" d="M432.5,249s-14-4.53-11-13"/><line class="cls-3" x1="439.5" y1="239.38" x2="438.57" y2="246.69"/><polyline class="cls-4" points="438.57 256.65 437.94 273.83 436.98 300.2"/><path class="cls-1" d="M483.5,307.5s7-.1,7,5v31h-7l10,12,13-11h-8l1-32,12-4,12.24,13.35,6.76-12.35s-13.23-2-12.12-11l-18.89,8-9.19-6.3-5.11,6.3"/><path class="cls-4" d="M437.94,273.83s13.24,10.33,30.4,0"/><path class="cls-4" d="M468.34,287.06s-15-7.44-30.4,0"/><path class="cls-3" d="M493.5,297.5l7.78,2.7,18.22-7.7s5,16,13,13"/><line class="cls-3" x1="532.5" y1="310.62" x2="527.32" y2="321.85"/><polyline class="cls-3" points="503.5 312.5 503.5 341.26 513 341.26 498.21 355.5 493.5 355.5"/><path class="cls-1" d="M594,308.34l3.57,2.27,2,36.88H594l8.43,8,9.12-9-5,1-1-35,14-6.62,17.36,6.62v31.82l-4.35,1.18,10.22,8,6.78-11-3.46-1.11-1.53-34.89s-16.71-6-17.36-11c0,0-13.18,10-19.91,11s-2,0-2,0l-6.64-5.81L593,306.49"/><path class="cls-3" d="M649.5,303l-1.15-.29A41.48,41.48,0,0,1,626.5,287.5c-6,7-4.46,5-4.46,5-6.46,7-19.54,9-19.54,9"/><path class="cls-3" d="M651.91,341.39,650.5,303.5Z"/><polyline class="cls-3" points="651.91 341.39 654.72 341.39 647.32 353.5"/><polyline class="cls-3" points="612.85 310.62 614.5 344.5 617.19 344.5 606.98 356.5"/><path class="cls-1" d="M649.5,379c5-1.58,8,6.46,8,6.46l-2,2-3.59-3.5c-3.59-3.5-7.4,0-7.4,0-5,1.5-3,15.5,4,17.5s15.4-2.33,15.4-2.33C666,370,663,340,664,311c1-3-3-6-7.5-6.5l9.46-10,10,8.46-5.62,3.54.2,94s-7,6.19-21,5.1c0,0-13-1.65-9.5-17.87C640,387.72,641.5,381.59,649.5,379Z"/><polyline class="cls-3" points="651.91 300.69 665.19 287.5 679.23 299.19"/><path class="cls-3" d="M679.23,303c-5.73,6.54-5.11,5.39-5.11,5.39l0,92.15-8.53,5.24"/><path class="cls-3" d="M651.91,387.21s-8.41-3.71-7.41,4.29c0,0,1.45,10.89,10.22,6.95l6.78-1.95,2.64-1.12"/><path class="cls-1" d="M714.5,323.5l-6,1s-13,7-10.88,14,18.64,4,18.64,4v-50L697.11,303l-9.45-4.46v-6l8.94,3,25.79-13.09,10,13.09H725l-.26,45.89-.18,4.11s3.68,8,7.84,7-4.09,7.68-4.09,7.68-7-2.67-7.4-6.67-10.26,5-10.26,5h-1.48l-19.66-20s1-15,20-19h5"/><polyline class="cls-3" points="687.66 287.5 696.5 291.5 724.17 276.12 734.5 289.5 738.21 294.1"/><path class="cls-3" d="M728.51,300.69v46.75s4.46,5.05,10.72,4.05l-7.73,11"/><path class="cls-3" d="M715.23,327s-8.73-.5-13.73,13.5"/><polyline class="cls-3" points="687.66 343.04 708.37 362.5 718.3 356.5"/><path class="cls-1" d="M743.5,265.5l16-9s-8.26,77.78-1.63,84.89h9.7l-12,12.95-13-10.84,4.39-.46L745.5,265.5"/><path class="cls-3" d="M741.5,258.5c22-11,22-11.81,22-11.81l-2,91.81h13l-14.55,17-5.06,3"/><path class="cls-1" d="M679.23,385.17,807.5,384v-2.5c-2,2-11.84-6-11.84-6l-6.38-17-3.78,15-97,2h-8Z"/><polyline class="cls-1" points="443.98 391.3 431.57 391.3 419.06 391.3 412.17 391.3 633.5 389.5 633.5 402.53 461.7 402.53 384.6 402.53 384.6 390.53 410.45 391.04"/><path class="cls-1" d="M421.5,405.73v-1.92s6,7.69,2,14.69c0,0,6.55.62,5.78-14.69"/><path class="cls-1" d="M440.77,403.81a14,14,0,0,1,5.73,14.69s7-8.39,4.5-14.69"/><path class="cls-3" d="M432.34,403.81s2.84,11.5-3,16.6"/><path class="cls-3" d="M456.5,403.5s-1,11-5.5,15"/><path class="cls-3" d="M385.5,380.5s6.53,1.34,7.27,4.67,239-2.34,239-2.34"/><path class="cls-3" d="M682.5,391.5h53.93s11.07,5.45,6.07,14.23"/><path class="cls-1" d="M743.37,386.35S752.45,400.58,750,410c0,0,9.1-3.84,3.81-23.69"/><line class="cls-3" x1="472.17" y1="420.4" x2="891.91" y2="418.5"/><path class="cls-3" d="M270.47,389.5h95s20.1,7.21,3.57,22.61H278.13"/><polyline class="cls-3" points="287.5 393.5 361.87 396.02 366.47 398.45 361.87 400.8 284.26 398.45"/><polyline class="cls-3" points="382.3 412.11 423.66 412.11 665.57 412.11 730.06 411 839.57 405.73 842.89 408.92"/><circle class="cls-1" cx="894.5" cy="421.5" r="9"/><circle class="cls-1" cx="842.5" cy="404.5" r="9"/><path class="cls-3" d="M846.47,392.83c0-.33,16.12,9.67,3.57,20.67"/><path class="cls-3" d="M900.85,408.92s15.65,13.58-.35,23.58"/><polyline class="cls-3" points="284.26 403.81 361.87 405.73 366.47 402.53 361.87 400.8 366.47 398.45 361.87 394.87 365.45 389.5"/><line class="cls-3" x1="364.43" y1="412.11" x2="361.87" y2="405.73"/><path class="cls-1" d="M569.7,327H558.47c-6,3.5-12,11.5-12,11.5-7,11,13.79,14.27,13.79,14.27,4.76-.73,11.49-5.33,11.49-5.33V314.18l-3.06-1.68-5.18-4-18.31,5.68-7.69-4.68,2.84-9.3,8.17,6.3L567,300.69s9,9.81,16.23,11.81v34.95l-1.73,4.05s-1.87,6.35,5.56,8.67l-4.56,7.33-6.41-7.33-5.87-3.67c-22.71,6-32.71-9.05-32.71-9.05s-.62-11.95,7.69-20.45l17.09-1.5C569.5,327.5,569.7,327,569.7,327Z"/><polyline class="cls-4" points="585.02 306.5 567 294.1 552.85 300.2 545.19 294.1 540.34 300.2"/><path class="cls-4" d="M567,331.6s-16.86,2.8-15.68,15.85"/><path class="cls-4" d="M585.5,308.5l1.56,7.73,1.44,35.27,4.44,7-5.87,13.34"/><polyline class="cls-1" points="567 397.61 572.77 400.8 579.91 403.16"/><line class="cls-3" x1="515.06" y1="403.16" x2="515.06" y2="398.61"/><polyline class="cls-1" points="559.13 303.5 567 300.69 583.23 312.5"/><polyline class="cls-1" points="581.5 351.5 587.06 360.17 582.09 356.5"/></g></svg>